<?xml version="1.0" encoding="UTF-8" standalone="no"?>
<!DOCTYPE svg PUBLIC "-//W3C//DTD SVG 1.1//EN" "http://www.w3.org/Graphics/SVG/1.1/DTD/svg11.dtd">
<svg width="100%" height="100%" viewBox="0 0 512 512" version="1.1" xmlns="http://www.w3.org/2000/svg" xmlns:xlink="http://www.w3.org/1999/xlink" xml:space="preserve" xmlns:serif="http://www.serif.com/" style="fill-rule:evenodd;clip-rule:evenodd;stroke-linejoin:round;stroke-miterlimit:2;">
    <g transform="matrix(0.1,0,0,-0.1,0,512)">
        <path d="M2087,5109C1986,5085 1882,5004 1837,4913C1798,4837 1790,4773 1790,4555L1790,4350L1558,4350C1294,4350 1241,4342 1120,4282C1015,4231 889,4105 838,4000C771,3863 769,3846 772,3317L775,2845L801,2789C850,2686 941,2608 1049,2576C1094,2563 1163,2560 1447,2560L1790,2560L1790,2633C1790,2749 1836,2813 1920,2813C2004,2813 2050,2749 2050,2633L2050,2560L3070,2560L3070,2633C3070,2749 3116,2813 3200,2813C3284,2813 3330,2749 3330,2632L3330,2559L3693,2562C4045,2565 4057,2566 4112,2588C4193,2621 4272,2696 4312,2778L4345,2845L4348,3317C4351,3846 4349,3863 4282,4000C4231,4105 4105,4231 4000,4282C3879,4342 3826,4350 3563,4350L3330,4350L3330,4555C3330,4668 3325,4783 3319,4812C3293,4933 3216,5029 3102,5083L3035,5115L2580,5117C2330,5118 2108,5114 2087,5109ZM3010,4844C3066,4810 3070,4792 3070,4561L3070,4350L2050,4350L2050,4561C2050,4791 2054,4809 2109,4843C2132,4858 2185,4859 2558,4860C2933,4860 2985,4858 3010,4844Z" style="fill:white;fill-rule:nonzero;"/>
        <path d="M772,1468L775,505L797,447C864,271 974,143 1121,71C1271,-3 1203,0 2560,0C3917,0 3849,-3 4000,71C4145,143 4256,272 4323,447L4345,505L4348,1469L4351,2432L4318,2410C4271,2379 4187,2342 4121,2323C4076,2310 3995,2306 3698,2303L3331,2298L3325,1870L3289,1834C3225,1770 3130,1782 3088,1861C3072,1890 3070,1920 3070,2097L3070,2300L2051,2300L2045,1870L2009,1834C1945,1770 1850,1782 1808,1861C1792,1890 1790,1920 1790,2096L1790,2298L1423,2303C1122,2306 1045,2310 998,2323C937,2341 864,2373 805,2410L769,2432L772,1468Z" style="fill:white;fill-rule:nonzero;"/>
        <path d="M295,2036C179,2007 89,1933 37,1822L5,1755L5,1035L32,954C88,790 202,659 355,585C404,560 463,538 484,534L523,527L517,581C513,611 510,953 510,1343L510,2050L428,2049C382,2049 323,2043 295,2036Z" style="fill:white;fill-rule:nonzero;"/>
        <path d="M4610,1343C4610,953 4607,611 4603,581L4597,527L4636,534C4657,538 4716,561 4767,585C4919,660 5032,789 5088,954L5115,1035L5115,1755L5083,1822C5011,1975 4880,2050 4685,2050L4610,2050L4610,1343Z" style="fill:white;fill-rule:nonzero;"/>
    </g>
</svg>
